<?xml version="1.0" encoding="utf-8"?>
<!-- Generator: Adobe Illustrator 16.0.0, SVG Export Plug-In . SVG Version: 6.00 Build 0)  -->
<!DOCTYPE svg PUBLIC "-//W3C//DTD SVG 1.0//EN" "http://www.w3.org/TR/2001/REC-SVG-20010904/DTD/svg10.dtd">
<svg version="1.0" id="Layer_1" xmlns="http://www.w3.org/2000/svg" xmlns:xlink="http://www.w3.org/1999/xlink" x="0px" y="0px"
	 width="100px" height="100px" viewBox="0 0 100 100" enable-background="new 0 0 100 100" xml:space="preserve">
<path fill="#03A9F4" d="M90,90H70c-12.637,0-23.651-7.07-29.304-17.461c1.908-1.182,3.749-2.483,5.49-3.945
	c4.382,8.724,13.4,14.739,23.814,14.739h20V90z"/>
<path fill="#03A9F4" d="M47.954,90c-5.472-3.633-10.014-8.555-13.153-14.353c-2.047,0.893-4.163,1.622-6.327,2.208
	c2.317,4.527,5.364,8.619,8.967,12.145H47.954z"/>
<path fill="#03A9F4" d="M28.502,90c-2.663-3.316-4.964-6.937-6.787-10.83c-1.822,0.212-3.658,0.354-5.519,0.354h-1.647
	c1.53,3.698,3.444,7.191,5.648,10.476H28.502z"/>
<path fill="#03A9F4" d="M90,76.666H70c-11.027,0-20-8.971-20-20c0-0.37,0.035-0.729,0.055-1.094l-5.573,5.573
	c-7.554,7.552-17.599,11.713-28.286,11.713H10v-6.667h6.196c4.372,0,8.613-0.84,12.543-2.435c2.071-0.841,4.058-1.887,5.93-3.138
	c1.813-1.212,3.522-2.61,5.099-4.188h-0.001l6.665-6.666C52.467,43.73,60.801,40,70,40v3.333c-7.363,0-13.334,5.971-13.334,13.333
	c0,4.74,2.488,8.906,6.223,11.271C64.947,69.241,67.386,70,70,70h2.056H90V76.666z"/>
<path fill="#90A4AE" d="M76.758,27.949L90,14.71L85.283,10L72.045,23.239c-1.324-1.059-2.734-2.016-4.23-2.842L72.125,10h-7.213
	l-3.261,7.861c-1.612-0.466-3.272-0.811-4.985-1V10H50v6.861c-1.712,0.189-3.379,0.534-4.994,1L41.751,10h-7.213l4.307,10.403
	c-1.491,0.824-2.9,1.777-4.224,2.836L21.383,10h-9.427l17.951,17.952c-1.058,1.322-2.012,2.731-2.837,4.226L10,25.104v7.218
	l14.528,6.019c-0.464,1.614-0.811,3.281-0.998,4.993H10.001V50h13.532c0.568,5.085,2.42,9.763,5.207,13.754v0.003
	c2.071-0.841,4.058-1.887,5.93-3.138v-0.014C31.751,56.716,30,51.904,30,46.666c0-12.887,10.444-23.333,23.334-23.333
	c12.891,0,23.332,10.446,23.332,23.333c0,9.477-5.664,17.596-13.777,21.244v0.026C64.947,69.241,67.386,70,70,70h2.056
	c3.042-2.438,5.581-5.443,7.481-8.874L90,65.462v-7.216l-7.852-3.256c0.467-1.608,0.756-3.285,0.943-4.99H90v-6.667h-6.861
	c-0.188-1.715-0.533-3.379-1.004-4.996L90,35.082v-7.214l-10.402,4.31C78.771,30.684,77.818,29.274,76.758,27.949z"/>
</svg>
